<?xml version="1.0" encoding="iso-8859-1"?>
<!-- Uploaded to: SVG Repo, www.svgrepo.com, Generator: SVG Repo Mixer Tools -->
<!DOCTYPE svg PUBLIC "-//W3C//DTD SVG 1.1//EN" "http://www.w3.org/Graphics/SVG/1.1/DTD/svg11.dtd">
<svg height="800px" width="800px" version="1.1" id="Capa_1" xmlns="http://www.w3.org/2000/svg" xmlns:xlink="http://www.w3.org/1999/xlink" 
	 viewBox="0 0 357.25 357.25" xml:space="preserve">
<g>
	<path style="fill:#4D4D4D;" d="M340.25,178.62c0,8.48-0.62,16.81-1.82,24.95c-7.63,51.95-38.74,96.26-82.2,121.82
		c-25.26,14.85-54.68,23.36-86.1,23.36s-60.84-8.51-86.1-23.36c-21.73-12.78-40.37-30.24-54.53-51
		c-9.81-14.37-17.47-30.31-22.52-47.38C2.44,211.67,0,195.43,0,178.62c0-37.92,12.41-72.94,33.39-101.23
		C64.38,35.59,114.09,8.5,170.13,8.5C264.09,8.5,340.25,84.66,340.25,178.62z"/>
	<path style="fill:#B4D87D;" d="M357.25,252.662c-0.126,40.38-33.65,72.728-74.03,72.728H84.03c-21.73-12.78-40.37-30.24-54.53-51
		h254.252c11.893,0,22.035-9.231,22.482-21.116c0.471-12.493-9.554-22.804-21.944-22.804H29.75c-7.92,0-15.57-1.21-22.77-3.46
		C2.44,211.67,0,195.43,0,178.62c0-37.92,12.41-72.94,33.39-101.23h220.012c13.034,0,23.6,10.566,23.6,23.6v11.148
		c0,8.976-7.276,16.252-16.252,16.252H30.331c-14.284,0-26.355,11.689-26.118,25.971c0.231,13.882,11.6,25.109,25.536,25.109h254.54
		c21.46,0,40.78,9.31,54.14,24.1C350.168,216.563,357.309,233.791,357.25,252.662z"/>
	<path style="fill:#4D4D4D;" d="M249.25,102.89h55.5v11h-55.5c-3.038,0-5.5-2.462-5.5-5.5v0
		C243.75,105.352,246.212,102.89,249.25,102.89z"/>
	<circle style="fill:#4D4D4D;" cx="232.75" cy="91.89" r="9.5"/>
</g>
</svg>