<?xml version="1.0" encoding="utf-8"?><!-- Uploaded to: SVG Repo, www.svgrepo.com, Generator: SVG Repo Mixer Tools -->
<svg fill="#000000" width="800px" height="800px" viewBox="0 0 24 24" id="pull-up-bar" data-name="Flat Color" xmlns="http://www.w3.org/2000/svg" class="icon flat-color"><path id="primary" d="M20,22a1,1,0,0,1-1-1V3a1,1,0,0,1,2,0V21A1,1,0,0,1,20,22ZM5,21V3A1,1,0,0,0,3,3V21a1,1,0,0,0,2,0Z" style="fill: rgb(0, 0, 0);"></path><path id="secondary" d="M22,21a1,1,0,0,1-1,1H19a1,1,0,0,1,0-2h2A1,1,0,0,1,22,21ZM5,20H3a1,1,0,0,0,0,2H5a1,1,0,0,0,0-2ZM3,4H21a1,1,0,0,0,0-2H3A1,1,0,0,0,3,4Z" style="fill: rgb(44, 169, 188);"></path></svg>