<?xml version="1.0" ?>
<!DOCTYPE svg  PUBLIC '-//W3C//DTD SVG 1.1//EN'  'http://www.w3.org/Graphics/SVG/1.1/DTD/svg11.dtd'>
<!-- Uploaded to: SVG Repo, www.svgrepo.com, Generator: SVG Repo Mixer Tools -->
<svg width="800px" height="800px" viewBox="0 -2 1023 1023" style="shape-rendering:geometricPrecision; text-rendering:geometricPrecision; image-rendering:optimizeQuality; fill-rule:evenodd; clip-rule:evenodd" version="1.1" xml:space="preserve" xmlns="http://www.w3.org/2000/svg" xmlns:xlink="http://www.w3.org/1999/xlink">
<defs>
<style type="text/css">
   <![CDATA[
    .fil0 {fill:#FEFEFE}
    .fil1 {fill:#1D1819}
   ]]>
  </style>
</defs>
<g id="Layer_x0020_1">
<g id="_792332112">
<polygon class="fil0" points="958,61 958,191 895,191 895,256 767,256 767,446 958,446 958,511 1023,511 1023,828 958,828 958,893 1023,893 1023,1019 702,1019 702,954 511,954 511,1019 65,1019 65,958 0,958 0,637 65,637 65,572 130,572 130,511 191,511 191,446 130,446 130,256 65,256 65,191 0,191 0,65 65,65 65,0 126,0 126,65 386,65 386,0 637,0 637,65 828,65 828,0 895,0 895,61 "/>
<path class="fil1" d="M130 65l256 0 0 -65 190 0 61 0 0 65 191 0 65 0 0 -65 -65 0 0 65 0 61 -191 0 0 65 65 0 0 65 65 0 128 0 0 -65 0 -130 63 0 0 130 -63 0 -128 0 0 65 0 190 191 0 0 65 65 0 0 317 -65 0 -191 0 0 -126 126 0 0 -65 -126 0 0 -126 191 0 0 317 0 65 65 0 0 61 0 65 -65 0 -256 0 0 -61 -191 0 0 61 -446 0 0 -61 -65 0 0 -130 0 -65 0 -126 65 0 65 0 0 126 0 65 -65 0 0 130 126 0 0 -65 65 0 65 0 0 -65 61 0 0 65 69 0 251 0 0 -65 0 -65 -65 0 -446 0 0 -61 381 0 0 -65 65 0 0 -316 -65 0 0 61 -126 0 -64 0 0 -126 64 0 0 -65 -125 0 0 65 -65 0 -63 0 0 -65 0 -65 -63 0 0 -61zm442 446l-61 0 0 -65 61 0 0 65zm-126 -65l-253 0 0 -64 63 0 0 -126 0 -65 -63 0 -2 0 -61 0 -65 0 0 -126 0 -65 61 0 0 65 -61 0 -65 0 0 126 65 0 0 65 65 0 0 190 61 0 0 65 -61 0 0 61 -65 0 0 65 0 126 65 0 61 0 0 65 65 0 0 65 0 65 195 0 0 -65 0 -65 186 0 0 -65 0 -61 65 0 0 -446 -65 0 0 -65 -61 0 0 -65 -130 0 0 65 65 0 0 130 -65 0 0 61 0 64zm-255 191l0 -65 65 0 0 65 -65 0zm195 -65l-69 0 0 65 69 0 0 -65zm125 0l-65 0 0 65 65 0 0 -65zm191 382l256 0 0 -61 -191 0 -65 0 0 61z"/>
</g>
</g>
</svg>