<?xml version="1.0" encoding="iso-8859-1"?>
<!-- Uploaded to: SVG Repo, www.svgrepo.com, Generator: SVG Repo Mixer Tools -->
<svg version="1.1" id="Layer_1" xmlns="http://www.w3.org/2000/svg" xmlns:xlink="http://www.w3.org/1999/xlink" 
	 viewBox="0 0 512 512" xml:space="preserve">
<path style="fill:#FD5E95;" d="M246.499,345.112c-2.936,0.267-5.528,2.022-6.866,4.649l-85.2,149.865
	c-4.16,7.318-15.272,4.89-16.002-3.495l-9.711-111.602c-0.018-3.852-2.603-7.22-6.32-8.234L19.69,348.284
	c-7.913-2.158-8.574-13.124-0.979-16.219L150.483,270c1.605-0.756,2.936-1.991,3.809-3.535l39.456-69.713
	c3.617-8.139,15.707-6.055,16.39,2.826l3.219,41.837c0.157,2.041,1.039,3.96,2.487,5.407l72.517,72.517
	c4.589,4.589,2.617,12.414-3.598,14.28L246.499,345.112z"/>
<path style="fill:#D14D7B;" d="M151.969,482.513l-9.711-111.601c-0.018-3.852-2.603-7.22-6.32-8.234l-102.71-28.011
	c-3.481-0.95-5.556-3.606-6.145-6.544l-8.373,3.943c-7.595,3.094-6.933,14.06,0.979,16.219l102.71,28.011
	c3.717,1.013,6.302,4.381,6.32,8.234l9.711,111.601c0.73,8.385,11.842,10.813,16.002,3.495l5.302-9.326
	C155.929,489.932,152.371,487.134,151.969,482.513z"/>
<rect x="302.584" y="45.434" transform="matrix(-0.7071 -0.7071 0.7071 -0.7071 413.6285 545.2475)" style="fill:#4E5058;" width="34.309" height="283.049"/>
<g>
	
		<rect x="173.232" y="282.006" transform="matrix(-0.7071 -0.7071 0.7071 -0.7071 142.7559 657.4527)" style="fill:#E9E9EA;" width="68.618" height="34.309"/>
	
		<rect x="124.706" y="330.523" transform="matrix(-0.7071 -0.7071 0.7071 -0.7071 25.6107 705.9626)" style="fill:#E9E9EA;" width="68.618" height="34.309"/>
</g>
<rect x="432.979" y="13.672" transform="matrix(-0.7071 -0.7071 0.7071 -0.7071 728.4344 414.8431)" style="fill:#FD5E95;" width="34.309" height="85.772"/>
<path d="M276.008,295.615c-3.14-3.14-8.232-3.14-11.371,0c-3.14,3.14-3.14,8.232,0,11.371l18.039,18.039
	c0.086,0.086,0.215,0.215,0.14,0.51c-0.074,0.295-0.25,0.347-0.366,0.382l-37.613,11.297c-5.258,0.773-9.786,3.972-12.273,8.708
	l-85.122,149.729c-0.267,0.471-0.953,0.321-1-0.219l-9.687-111.326c-0.204-7.278-5.189-13.647-12.24-15.569L21.806,340.526
	c-0.223-0.061-0.371-0.101-0.395-0.485c-0.024-0.384,0.119-0.442,0.333-0.529c0.132-0.054,0.263-0.112,0.392-0.173l78.226-36.844
	c4.017-1.892,5.74-6.683,3.848-10.701c-1.893-4.018-6.684-5.74-10.701-3.848l-78.062,36.767c-6.568,2.783-10.521,9.154-10.09,16.298
	c0.436,7.226,5.231,13.127,12.215,15.032l102.71,28.011c0.505,0.137,0.391,0.786,0.425,1.173l9.712,111.601
	c0.634,7.288,5.862,13.234,13.009,14.795c7.056,1.541,14.426-1.747,17.994-8.022l85.2-149.865c0.061-0.107,0.119-0.215,0.175-0.325
	c0.085-0.164,0.244-0.272,0.429-0.289c0.537-0.048,1.069-0.152,1.586-0.307l38.265-11.494c5.655-1.698,9.892-6.131,11.335-11.856
	c1.443-5.725-0.189-11.637-4.364-15.812L276.008,295.615z"/>
<path d="M165.459,389.761c3.097,3.098,8.274,3.098,11.371,0l24.26-24.26c3.14-3.14,3.14-8.232,0-11.371l-48.521-48.521
	c-3.14-3.14-8.232-3.14-11.371,0l-24.26,24.26c-3.14,3.14-3.14,8.232,0,11.371L165.459,389.761z M146.885,322.666l37.148,37.148
	l-12.889,12.889l-37.148-37.148L146.885,322.666z"/>
<path d="M504.346,50.875l-6.444-6.445c3.232-3.232,3.77-8.362,0.38-11.751L474.02,8.42c-3.392-3.393-8.517-2.855-11.751,0.38
	l-6.445-6.444c-3.14-3.141-8.232-3.14-11.371,0c-3.14,3.14-3.14,8.232,0,11.371l6.445,6.444l-6.823,6.823l-6.445-6.444
	c-3.14-3.141-8.232-3.14-11.371,0c-3.14,3.14-3.14,8.232,0,11.371l6.444,6.444l-6.823,6.823l-6.444-6.444
	c-3.139-3.14-8.231-3.14-11.371,0c-3.14,3.14-3.14,8.231,0,11.371l6.444,6.444l-6.823,6.823l-6.444-6.444
	c-3.14-3.14-8.232-3.14-11.371,0c-3.14,3.14-3.14,8.232,0,11.371l6.444,6.444L225.731,245.337l-4.2-4.2
	c-0.091-0.091-0.146-0.211-0.157-0.339l-3.218-41.837c-0.594-7.719-6.119-13.787-13.746-15.103
	c-7.483-1.288-14.586,2.407-17.823,9.222l-39.293,69.425c-0.055,0.096-0.137,0.173-0.238,0.221l-23.895,11.255
	c-3.709,1.747-5.529,6.155-4.135,10.01c1.588,4.391,6.757,6.533,10.988,4.541l23.895-11.255c3.128-1.473,5.679-3.842,7.382-6.849
	l39.456-69.713c0.177-0.312,0.289-0.935,0.685-1.027c0.377-0.088,0.664,0.161,0.69,0.508l3.218,41.837
	c0.304,3.952,2.015,7.672,4.818,10.476l4.201,4.201l-6.823,6.823l-6.444-6.444c-3.14-3.14-8.232-3.14-11.371,0l-24.26,24.26
	c-3.14,3.14-3.14,8.232,0,11.371l48.521,48.521c3.098,3.097,8.274,3.097,11.371,0l24.26-24.26c3.14-3.14,3.14-8.232,0-11.371
	l-6.444-6.444L431.946,110.39l6.445,6.445c3.271,3.27,8.792,3.05,11.799-0.461c2.695-3.147,2.5-7.983-0.428-10.91l-6.445-6.445
	l6.823-6.823l6.445,6.444c3.27,3.271,8.793,3.05,11.799-0.461c2.694-3.147,2.5-7.982-0.428-10.91l-6.445-6.444l6.823-6.823
	l6.444,6.444c3.271,3.27,8.792,3.05,11.799-0.461c2.695-3.147,2.5-7.983-0.428-10.91l-6.444-6.444l6.823-6.823l6.444,6.445
	c3.27,3.271,8.792,3.049,11.799-0.461C507.468,58.638,507.273,53.802,504.346,50.875z M219.666,324.183l-37.148-37.148
	l12.889-12.888l37.148,37.148L219.666,324.183z M481.223,38.365l-49.279,49.279l-0.38-0.38l-12.509-12.509l30.703-30.703
	c0.001-0.001,0.001-0.001,0.002-0.002c0,0,0.001-0.001,0.002-0.002l18.573-18.572L481.223,38.365z M371.292,148.296l-12.888-12.889
	l18.954-18.954l12.888,12.889L371.292,148.296z M340.967,178.621l-12.888-12.889l18.954-18.954l12.889,12.889L340.967,178.621z
	 M310.642,208.946l-12.889-12.889l18.954-18.954l12.889,12.889L310.642,208.946z M280.317,239.272l-12.889-12.889l18.954-18.954
	l12.889,12.889L280.317,239.272z M249.991,269.597l-12.888-12.888l18.954-18.954l12.889,12.889L249.991,269.597z M225.731,268.081
	l12.889,12.888l-6.823,6.823l-12.889-12.888L225.731,268.081z M401.618,117.971l-12.888-12.888l18.954-18.954l12.509,12.509
	l0.38,0.38L401.618,117.971z"/>
<path d="M170.766,407.957c-2.527,2.527-3.076,6.549-1.309,9.657c1.613,2.836,4.768,4.954,8.078,4.822
	c3.814-0.153,7.077-3.087,7.631-6.862c0.473-3.226-1.105-6.003-3.49-8.043C178.53,404.836,173.693,405.029,170.766,407.957z"/>
<path d="M154.086,439.038c2.814,2.817,7.44,3.132,10.594,0.688c2.868-2.222,3.917-6.193,2.491-9.534
	c-1.172-2.745-4.02-5.117-6.979-5.553c-3.568-0.524-7.148,1.469-8.569,4.789C150.078,433.036,151.481,436.434,154.086,439.038z"/>
<path d="M159.396,408.713c2.526-2.528,3.074-6.55,1.305-9.658c-1.503-2.641-4.388-4.71-7.461-4.82
	c-3.607-0.13-6.951,2.255-7.991,5.715c-0.995,3.31,0.3,6.33,2.657,8.65C151.072,411.715,156.188,411.924,159.396,408.713z"/>
</svg>