<?xml version="1.0" encoding="utf-8"?>
<!-- Uploaded to: SVG Repo, www.svgrepo.com, Generator: SVG Repo Mixer Tools -->
<svg fill="#000000" height="800px" width="800px" version="1.1" id="Layer_1" xmlns="http://www.w3.org/2000/svg" xmlns:xlink="http://www.w3.org/1999/xlink" 
	 viewBox="0 0 256 256" xml:space="preserve">
<g>
	<circle cx="129.8" cy="25.3" r="24.6"/>
	<path d="M225.2,173L225.2,173c0-3.9-1.5-7.9-4.5-10.9c-3-3-7-4.5-10.9-4.5h-46.2v-5.9c3.9,1.6,8.5,0.8,11.6-2.4l34.8-34.8
		c4.2-4.2,4.2-11,0-15.2L175.9,65c-6-6-13.9-9-21.8-9l-24.4,0l0,0h0h0l0,0l-24.4,0c-7.9,0-15.7,3-21.8,9L49.4,99.2
		c-4.2,4.2-4.2,11,0,15.2l34.8,34.8c3.1,3.1,7.8,3.9,11.6,2.4v5.9H49.7c-3.9,0-7.9,1.5-10.9,4.5c-3,3-4.5,7-4.5,10.9v0l0,67.2
		c0,8.5,6.9,15.4,15.4,15.4c8.5,0,15.4-6.9,15.4-15.4v-51.7h64.7h64.7v51.7c0,8.5,6.9,15.4,15.4,15.4c8.5,0,15.4-6.9,15.4-15.4
		L225.2,173z M166.7,87.6c0.9,0,1.6,0.3,2.2,0.9l18.4,18.4l-23.6,23.6V90.6C163.6,88.9,165,87.6,166.7,87.6z M72.3,106.8l18.4-18.4
		c0.6-0.6,1.3-0.9,2.2-0.9c1.7,0,3.1,1.4,3.1,3.1v26.9v12.9L72.3,106.8z"/>
</g>
</svg>