<?xml version="1.0" encoding="utf-8"?>

<!DOCTYPE svg PUBLIC "-//W3C//DTD SVG 1.1//EN" "http://www.w3.org/Graphics/SVG/1.1/DTD/svg11.dtd">
<!-- Uploaded to: SVG Repo, www.svgrepo.com, Generator: SVG Repo Mixer Tools -->
<svg height="800px" width="800px" version="1.1" id="_x32_" xmlns="http://www.w3.org/2000/svg" xmlns:xlink="http://www.w3.org/1999/xlink" 
	 viewBox="0 0 512 512"  xml:space="preserve">
<style type="text/css">
	.st0{fill:#000000;}
</style>
<g>
	<path class="st0" d="M163.597,202.967c0-32.127-18.848-58.596-54.865-64.508c-4.958,1.65-10.252,2.576-15.749,2.576
		c-5.515,0-10.801-0.926-15.76-2.576c-36.008,5.912-54.864,32.381-54.864,64.508h70.624H163.597z"/>
	<path class="st0" d="M92.983,129.581c21.344,0,38.655-17.302,38.655-38.646V79.967c0-21.353-17.312-38.656-38.655-38.656
		c-21.353,0-38.656,17.302-38.656,38.656v10.968C54.326,112.279,71.63,129.581,92.983,129.581z"/>
	<path class="st0" d="M326.62,202.967c0-32.127-18.848-58.596-54.874-64.508c-4.958,1.65-10.244,2.576-15.75,2.576
		c-5.505,0-10.8-0.926-15.758-2.576c-36.008,5.912-54.865,32.381-54.865,64.508h70.623H326.62z"/>
	<path class="st0" d="M255.996,129.581c21.353,0,38.656-17.302,38.656-38.646V79.967c0-21.353-17.304-38.656-38.656-38.656
		c-21.352,0-38.646,17.302-38.646,38.656v10.968C217.349,112.279,234.644,129.581,255.996,129.581z"/>
	<path class="st0" d="M489.642,202.967c0-32.127-18.856-58.596-54.882-64.508c-4.958,1.65-10.235,2.576-15.741,2.576
		c-5.506,0-10.8-0.926-15.758-2.576c-36.018,5.912-54.865,32.381-54.865,64.508h70.623H489.642z"/>
	<path class="st0" d="M419.018,129.581c21.344,0,38.647-17.302,38.647-38.646V79.967c0-21.353-17.303-38.656-38.647-38.656
		c-21.353,0-38.656,17.302-38.656,38.656v10.968C380.363,112.279,397.666,129.581,419.018,129.581z"/>
	<polygon class="st0" points="512,230.24 0,230.24 0,266.461 15.697,266.461 15.697,470.689 496.295,470.689 496.295,266.461 
		512,266.461 	"/>
</g>
</svg>