<?xml version="1.0" encoding="utf-8"?><!-- Uploaded to: SVG Repo, www.svgrepo.com, Generator: SVG Repo Mixer Tools -->
<svg width="800px" height="800px" viewBox="0 0 64 64" xmlns="http://www.w3.org/2000/svg"><path d="m28 6.3c6.29-1.22 13.47 1.62 19.15 4.93s7.66 6 9.16 9a28 28 0 0 1 2.55 13.57c-.37 5.31-2.31 8.84-4.68 13.09a17.77 17.77 0 0 1 -9.35 8.38c-4.28 1.84-7.53 3.65-14.78 2.18s-14.34-4.31-17.62-7.53-6.54-6.59-7.22-15.5 1.53-11.42 3.28-14.22a36.12 36.12 0 0 1 8.56-9.47c4.06-3.12 7.34-3.73 10.95-4.43z" fill="#1d1d1b"/><path d="m16.43 13.33c-.19-.05-.16-.41.09-.63a16.43 16.43 0 0 1 5.91-3.4 20.35 20.35 0 0 1 4.57-1.13s-.41.6.09.72 1 .22 1.16 0-.09-.81.06-.84a21.4 21.4 0 0 1 7.91.72 55.11 55.11 0 0 1 10.22 3.9c.81.41 1.62 1 1.47 1.1a18.87 18.87 0 0 1 -2.66 0c-.63 0-3.53-.81-6.13-.25s-4.12 1.15-6.73 1.25a30.39 30.39 0 0 1 -5.56-.54c-1.09-.09-4.81-.71-6.28-.71s-3.87-.13-4.12-.19z" fill="#acb284"/><path d="m13.14 16a18.3 18.3 0 0 1 2.69-1.06 42 42 0 0 1 7.22.5c4.5.56 5.16 1.13 9.5.63s5.91-1.41 7.94-1.38 4.87.72 6.69.72 2.31-.22 2.65-.13a12.06 12.06 0 0 1 3.78 4.1c1.28 2.28.44 1.75.19 1.75h-1.44a29.65 29.65 0 0 0 -2-2.88c-.22-.06-.87.1-.84.19s2.09 2.69 1.9 2.78a9 9 0 0 1 -1.84.13c-.12 0-1.91-3.07-2.12-3.07s-.75.13-.72.29 1.75 2.93 1.59 2.9-.84.13-1 0-1.59-2.47-1.81-2.58-.91 0-.84.22a23.58 23.58 0 0 1 1.25 2.28c-.13.09-2.5-.5-5.07-1a10.6 10.6 0 0 0 -5.5-.22c-2.56.44-3.15 1.31-9 1.47s-6.34-1.09-11 .31a42.19 42.19 0 0 0 -6 2.28c-.54.1-1.07.32-1.1.1a23.79 23.79 0 0 1 4.88-8.33z" fill="#ddc07c"/><path d="m7.68 26a11.13 11.13 0 0 0 4.32-1.33 17.17 17.17 0 0 1 8-1.87c3 0 3.84 1.25 9.34 0s7.66-1.8 10.84-1.22 4.18 1.65 8.5 1.34 5.9-.81 6.12-.59a15 15 0 0 1 1.13 3.78c-.19.09-2.57.19-3.1.28s-1.22.25-1.22.25a19 19 0 0 0 -2.06-2.22c-.22 0-.78.41-.69.53s2.13 1.82 1.88 1.94a11.19 11.19 0 0 1 -1.35.38 20.77 20.77 0 0 0 -2.34-2.38c-.28 0-.59.28-.56.41s2.31 2.18 2.15 2.31a8.26 8.26 0 0 1 -1.9.53c-.1-.06-1.13-1.81-1.63-1.81s-.72.19-.65.31 1.28 1.81 1.12 1.84a5.41 5.41 0 0 1 -2.94-.37 13.74 13.74 0 0 0 -5.56-.84c-1.56.18-3.31.75-7.62 2.65s-5.41 2.28-10 2.1-5.28-.6-7.82.18-4.75 1.8-4.81 1.63a18.25 18.25 0 0 1 -.12-4.28 10.57 10.57 0 0 1 .97-3.55z" fill="#acb284"/><path d="m7.3 35.48a13.16 13.16 0 0 1 7.09-2.34c3.66 0 4.88 1.09 10.47-.12s9.22-3.72 12.57-3.94 5.87 1.4 8.28 1.09 6.59-1.84 7.87-2 2.85-.28 2.94 0a13.47 13.47 0 0 1 .25 6.13c-.56 3.62-1.59 6.31-1.88 6.5a10.19 10.19 0 0 1 -1.93.5c-.22 0-.16.28-.44 0s-4.25-4.85-4.5-4.81-.78.28-.59.59 4.25 4.28 4 4.37a9.11 9.11 0 0 1 -2.5-.06c-.22-.12-2.47-3-2.72-3s-.63.13-.56.34 2.06 2.44 1.9 2.54a8.62 8.62 0 0 1 -4.15-1.16c-1.72-1-3.88-2.53-7-2.47s-4 1.22-7.65 1.16-6.88-1.5-11.63-1.47a34 34 0 0 0 -6.9.47c-.66.12-2 .9-2.19.81a13.3 13.3 0 0 1 -.73-3.13z" fill="#ddc07c"/><path d="m8.43 39.83a21.36 21.36 0 0 1 8.43-.94c4.85.31 5.75 1.81 11.35 1.53s8-.84 9.72-.72 5.78 3 9.93 3.41 6.22-.09 6.19.25a22.73 22.73 0 0 1 -1.19 2.56s-3.4.22-6.22.5-2.71.5-3.9.35a18.6 18.6 0 0 0 -6.28-.5 63.28 63.28 0 0 1 -8 .53c-4.25.06-6-1.47-9.6-.78a20.84 20.84 0 0 0 -5.46 1.87c-.38 0-1.66-1.53-3.07-3.53a10.84 10.84 0 0 1 -1.9-4.53z" fill="#acb284"/><path d="m21 12.3a.48.48 0 0 0 -.53-.69c-.69.06-.85.56-.66.75s.99.34 1.19-.06zm6.54-1.1c-.6.07-.74.57-.57.75s.9.35 1-.06-.09-.73-.47-.69zm3.37.44c.14-.41-.08-.73-.46-.69-.6.07-.74.57-.58.75s.86.35 1-.06zm-6.19-.94c.14-.4-.08-.72-.46-.68-.6.06-.74.56-.57.75s.86.34.99-.07zm2.82 2.22c-.6.06-.74.56-.57.75s.9.35 1-.06-.09-.73-.47-.69zm5.06-3.28c.13-.41-.08-.73-.47-.69-.6.07-.73.57-.57.75s.86.35 1-.06zm-.82 4.06c.16.19.9.35 1-.06s-.08-.73-.47-.69c-.6.05-.73.57-.57.75zm3.15-.7c.14-.41-.08-.73-.46-.69-.6.06-.74.56-.57.75s.9.36 1.03-.06zm.78-2.41c.14-.41-.08-.73-.46-.69-.6.06-.74.56-.57.75s.9.35 1.03-.04zm1.88 1.72c.13-.41-.08-.73-.47-.69-.6.06-.73.56-.57.75s.9.36 1.04-.04zm2.65-.63c.14-.4-.08-.72-.46-.68-.6.06-.74.56-.57.75s.9.36 1.03-.05zm-21.66 6.24c.78-.22 1.78 0 3.44-.22a14.16 14.16 0 0 0 3.06-.53c.06-.09 0-.12-.25-.34s-1 0-3.44.12-3 0-3.25 0a.79.79 0 0 0 -.46 1.13c.18.15.12.06.9-.16zm12.78 1c1.16-.15 2.57-.15 2.78-.22s0-.34-.21-.62-.57-.09-2 0-2-.14-2.07 0-.37.78-.21 1 .56.03 1.71-.08zm-20.75 10.72a9.32 9.32 0 0 1 .39-2.64c0-.16-.86-.19-.94 0a10.78 10.78 0 0 0 -.34 4.81c.12.15.84-.13 1.06-.31s-.1-.5-.17-1.86zm6.76-4c.14-.4-.08-.73-.46-.69-.6.07-.74.57-.58.75s.9.38 1.04-.03zm4.16-.37c.13-.41-.08-.73-.47-.69-.6.06-.73.56-.57.75s.9.37 1.04-.03zm-4.78 2.34c-.6.06-.74.56-.57.75s.9.34 1-.06-.05-.7-.43-.66zm-2.47 2.69c.13-.41-.08-.73-.47-.69-.6.06-.73.56-.57.75s.9.37 1.04-.03zm7.5-2.25c.13-.41-.08-.73-.47-.69-.6.06-.73.56-.57.75s.9.37 1.04-.03zm-1.72 2.25c.13-.41-.08-.73-.47-.69-.6.06-.73.56-.57.75s.9.37 1.04-.03zm3.43.15c.16.19.9.35 1-.06s-.08-.73-.47-.69c-.56.1-.69.6-.53.78zm.87-2.43c.17.18.9.34 1-.07s-.08-.72-.46-.68c-.56.09-.7.59-.54.78zm-10.46-1.02c.14-.41-.08-.73-.46-.69-.6.06-.74.56-.58.75s.9.36 1.04-.06zm12.59-1.38c.14-.41-.08-.73-.46-.69-.6.07-.74.57-.57.75s.9.37 1.03-.04zm.79 3.25c-.6.06-.74.56-.57.75s.9.34 1-.06-.05-.71-.43-.67zm2.65-2.19c.14-.4-.08-.72-.46-.68-.6.06-.74.56-.57.75s.9.36 1.03-.05zm1.76.22c-.6.06-.74.56-.58.75s.9.35 1-.06-.04-.71-.42-.67zm.12-3.25c-.6.06-.73.56-.57.75s.9.35 1-.06-.04-.71-.43-.67zm3.87 2.6c.14-.41-.08-.73-.46-.69-.6.06-.74.56-.57.75s.9.36 1.03-.04zm-.12-2.44c.13-.41-.08-.73-.47-.69-.6.06-.73.56-.57.75s.9.36 1.04-.04zm4 .12c.13-.4-.08-.72-.47-.68-.6.06-.73.56-.57.75s.93.36 1.07 0zm2.09 2.32c.14-.41-.08-.73-.46-.69-.6.06-.74.56-.57.75s.93.36 1.06-.04zm2.44-1.82c.14-.4-.08-.72-.46-.68-.6.06-.74.56-.58.75s.95.36 1.07-.05zm9.34 1c.14-.4-.08-.72-.46-.68-.6.06-.74.56-.57.75s.93.39 1.06-.02zm-27.07 10.93c-.22-.22-.59.09-2.53 0a12.14 12.14 0 0 1 -3.53-.66s-.25.5 0 .72a12.3 12.3 0 0 0 3.84.72 12 12 0 0 0 2.54 0c.5-.09-.1-.56-.32-.78zm16.47-3.69a27.93 27.93 0 0 1 -3.22-.25 32.87 32.87 0 0 0 -5.72.56c-.15.07 0 .85 0 .85s.6 0 2.72-.31a17.58 17.58 0 0 1 3.66 0 24.65 24.65 0 0 0 2.78.1c.31-.2.06-1.04-.22-.95zm-2.62 3.78c.22-.09.12-.5.15-.72s-1-.15-2.37-.15-3.27-.17-3.41-.1-.19.88.06 1a12.38 12.38 0 0 0 2.88-.06c1.22-.09 2.48.13 2.69.03zm9.34-2.45a1.7 1.7 0 0 0 -.5.75 58.13 58.13 0 0 0 5.22 4.72c.28.1.16-.15.34-.4s-4.88-4.91-5.06-5.07zm1.84-1.62c-.21 0-.47.36-.4.53a37.26 37.26 0 0 0 4.34 3.53c.19 0 .16-.22.16-.53a27.49 27.49 0 0 0 -4.1-3.55zm4.69-1c0-.25-2.25-1.73-2.25-1.44 0 .06-.5.47-.53.66a11 11 0 0 0 2.7 1.29c.14 0 .08-.28.08-.53zm-45.24 9.5c-.6.06-.73.56-.57.75s.9.34 1-.06-.04-.75-.43-.71zm2.16 2.39c.14-.41-.08-.73-.46-.69-.6.06-.74.56-.57.75s.86.34 1.03-.06zm1.95 0c-.6.06-.74.56-.58.75s.9.34 1-.07-.08-.72-.46-.68zm.24-2.72c.14-.41-.08-.73-.46-.69-.6.06-.74.56-.58.75s.85.39 1-.06zm1.1 4.12c-.6.06-.74.56-.57.75s.9.35 1-.06-.09-.73-.47-.69zm2.34-1.53c-.6.06-.73.56-.57.75s.9.34 1-.06-.06-.73-.47-.69zm-.35-2.31c.14-.41-.08-.73-.46-.69-.6.06-.74.56-.57.75s.86.34.99-.06zm2 1.87c-.6.07-.74.57-.57.75s.9.35 1-.06-.05-.73-.43-.69zm1.91-1.47c-.6.07-.74.57-.58.75s.9.35 1-.06-.04-.73-.42-.69zm1 3.44c-.6.06-.74.56-.58.75s.9.35 1-.06-.04-.73-.42-.69zm1.56-2.81c-.6.06-.74.56-.57.75s.9.34 1-.06-.05-.73-.43-.69zm1.44 1.56c-.6.06-.74.56-.58.75s.9.35 1-.06-.04-.73-.42-.69zm3.15-1.06c.13-.41-.08-.73-.47-.69-.6.06-.73.56-.57.75s.9.35 1.04-.06zm-3.5 2.69c-.6.06-.73.56-.57.75s.9.34 1-.07-.04-.73-.43-.68zm3.25.25c-.6.06-.73.56-.57.75s.9.34 1-.07-.04-.72-.43-.68zm.85-1.3c-.6.06-.74.56-.58.75s.9.34 1-.07-.04-.68-.42-.68zm1.34-1.85c-.6.06-.74.56-.57.75s.9.35 1-.06-.05-.71-.43-.67zm1.66 3c-.6.06-.74.56-.58.75s.9.35 1-.06-.04-.71-.42-.67zm1.28-1.5c-.6.06-.74.56-.57.75s.9.35 1-.06-.05-.71-.43-.67zm.4-2.81c-.6.06-.73.56-.57.75s.9.34 1-.06-.05-.71-.43-.67zm1.47 3.31c-.6.06-.73.56-.57.75s.9.35 1-.06-.04-.71-.43-.67zm2-1.65c.13-.41-.08-.73-.47-.69-.6.06-.73.56-.57.75s.87.36 1.01-.04zm.1 1c-.6.07-.74.57-.58.75s.9.35 1-.06-.07-.75-.45-.71zm2.09-1.5c-.6.07-.74.57-.57.75s.9.35 1-.06-.05-.75-.43-.69zm-.81 2.88c-.6.06-.74.56-.57.75s.9.34 1-.06-.05-.75-.43-.71zm2.22-.16c-.6.07-.74.57-.58.75s.9.35 1-.06-.04-.75-.42-.71zm2.5-.62c-.6.06-.74.56-.58.75s.9.34 1-.06-.04-.79-.42-.71zm-31 1.34c-.6.06-.74.56-.58.75s.9.35 1-.06-.04-.75-.42-.71z" fill="#1d1d1b"/><path d="m14.8 49s3.59-1.5 5.38-1.5 2.59 1.5 7.5 1.25 9.18-1.16 11.4-.88 1.53 1.06 5 .94 6.66-.91 6.66-.72-2.1 2.78-2.1 2.78a18.5 18.5 0 0 0 -1.84-1.47c-.16 0-.63.31-.53.44s1.87 1.5 1.75 1.62a8.49 8.49 0 0 1 -1.72 1.1c-.09-.1-1.91-2.47-2.09-2.53s-.72.15-.72.25 2.37 2.56 2.18 2.72-.25.18-.37.15-.59-.81-.84-.84a4.06 4.06 0 0 0 -.79.06 17.19 17.19 0 0 0 -1.87-1.78c-.25-.06-.63 0-.56.22s1.53 1.87 1.34 1.87a7.44 7.44 0 0 1 -1.25 0c-.15-.04-1.33-1.68-1.65-1.68s-.69 0-.69.13.84 1.59.84 1.59a23.38 23.38 0 0 0 -5.56-.44c-2.66.19-3.47.44-4.91.44s-2.34-.06-3.12 0a11.75 11.75 0 0 0 -1.85.25 9.8 9.8 0 0 1 -1.53.28 20.21 20.21 0 0 1 -8.06-4.25z" fill="#ddc07c"/><path d="m26.83 54.42a18.76 18.76 0 0 1 5.63-.62c3 .18 3.37.59 5.68.65s3.69.13 3.69.13a15.74 15.74 0 0 1 -5.09 1.56 21.79 21.79 0 0 1 -6.53-.37 20.79 20.79 0 0 1 -3.38-1.35z" fill="#acb284"/></svg>