<?xml version="1.0" encoding="iso-8859-1"?>
<!-- Uploaded to: SVG Repo, www.svgrepo.com, Generator: SVG Repo Mixer Tools -->
<svg height="800px" width="800px" version="1.1" id="Layer_1" xmlns="http://www.w3.org/2000/svg" xmlns:xlink="http://www.w3.org/1999/xlink" 
	 viewBox="0 0 511.974 511.974" xml:space="preserve">
<path style="fill:#656D78;" d="M288.004,367.128H31.998c-5.891,0-10.672,4.781-10.672,10.671v31.998
	c0,5.891,4.781,10.656,10.672,10.656h256.005c5.891,0,10.656-4.766,10.656-10.656v-31.998
	C298.66,371.909,293.894,367.128,288.004,367.128z"/>
<path style="fill:#965353;" d="M478.918,452.327L478.918,452.327c-6.922-0.219-13.452-2.625-18.874-6.953L243.177,272.521
	c-4.609-3.671-5.359-10.382-1.688-14.983l26.592-33.366c1.75-2.211,4.328-3.641,7.141-3.953s5.625,0.492,7.844,2.258
	l216.866,172.852c13.797,10.983,16.078,31.171,5.078,44.968C498.745,448.171,488.979,452.671,478.918,452.327z"/>
<g>
	<path style="fill:#7F4545;" d="M319.22,156.12L319.22,156.12l-79.246-63.154c-4.594-3.68-11.312-2.914-14.984,1.688
		c-2.938,3.687-3.031,8.718-0.609,12.468c-0.312,0.891-1.125,2.539-3.109,5.031s-3.406,3.641-4.203,4.156
		c-4.203-1.539-9.078-0.312-12.015,3.367c-3.671,4.609-2.922,11.32,1.688,14.991c0,0,0,0.008,0.016,0.008l79.216,63.138
		c0,0,0,0.008,0.016,0.016c1.859,1.484,4.062,2.242,6.281,2.312c0.109,0.008,0.203,0.008,0.312,0.008
		c5.75,0.039,10.53-4.523,10.718-10.312c0.078-2.273-0.562-4.406-1.719-6.179c0.328-0.891,1.125-2.546,3.109-5.023
		c1.984-2.492,3.422-3.641,4.203-4.156c4.203,1.539,9.093,0.32,12.03-3.367C324.58,166.503,323.83,159.792,319.22,156.12z
		 M220.037,117.989L220.037,117.989c-0.172-0.141-0.359-0.273-0.547-0.406C219.74,117.747,219.928,117.895,220.037,117.989z
		 M305.925,172.807c0.188,0.141,0.359,0.273,0.547,0.398C306.237,173.042,306.049,172.893,305.925,172.807z"/>
	<path style="fill:#7F4545;" d="M219.506,281.24c-0.016,0-0.016-0.016-0.016-0.016l-79.215-63.13
		c-0.016-0.008-0.016-0.008-0.016-0.016c-4.609-3.664-11.312-2.906-14.984,1.695c-2.938,3.688-3.047,8.719-0.609,12.469
		c-0.328,0.891-1.125,2.539-3.109,5.031s-3.421,3.641-4.218,4.156c-4.188-1.539-9.078-0.32-12.016,3.367
		c-3.671,4.609-2.906,11.32,1.703,14.992c0,0.008,0,0.016,0.016,0.016l79.216,63.123c0,0.016,0,0.016,0,0.016
		c1.875,1.484,4.078,2.25,6.296,2.328c0.094,0,0.203,0,0.297,0c5.765,0.031,10.546-4.516,10.733-10.312
		c0.078-2.281-0.562-4.406-1.734-6.188c0.328-0.891,1.14-2.547,3.109-5.016c1.984-2.5,3.422-3.641,4.219-4.156
		c4.188,1.531,9.078,0.312,12.015-3.375C224.865,291.615,224.115,284.912,219.506,281.24z M120.307,243.109L120.307,243.109
		c-0.172-0.141-0.344-0.281-0.531-0.406C120.01,242.867,120.197,243.015,120.307,243.109z M206.21,297.911v0.016
		c0.172,0.125,0.344,0.266,0.531,0.391C206.507,298.161,206.319,298.005,206.21,297.911z"/>
	<polygon style="fill:#7F4545;" points="285.082,305.911 324.97,255.874 308.284,242.578 268.394,292.615 	"/>
	<polygon style="fill:#7F4545;" points="451.903,438.875 491.792,388.829 475.105,375.533 435.216,425.578 	"/>
</g>
<path style="fill:#A85D5D;" d="M313.658,196.595c-0.327-2.804-1.733-5.375-3.952-7.14l-100.09-79.778
	c-2.219-1.766-5.047-2.578-7.843-2.258c-2.812,0.32-5.391,1.742-7.156,3.953L114.839,211.47c-1.75,2.211-2.578,5.031-2.25,7.843
	c0.312,2.812,1.734,5.383,3.953,7.141l100.089,79.77c1.859,1.484,4.078,2.25,6.281,2.328c3.266,0.109,6.516-1.281,8.703-4.016
	l79.778-100.089C313.159,202.236,313.97,199.407,313.658,196.595z"/>
<path style="fill:#7F4545;" d="M214.538,165.315c-23.515-0.781-43.279,17.71-44.061,41.225s17.718,43.279,41.232,44.061
	c23.515,0.773,43.28-17.718,44.061-41.233C256.536,185.854,238.052,166.089,214.538,165.315z"/>
<g>
	<path style="fill:#A85D5D;" d="M223.787,208.306c-0.203,5.89-5.125,10.507-11.015,10.312c-5.891-0.195-10.5-5.132-10.312-11.015
		c0.188-5.891,5.125-10.508,11.016-10.312C219.365,197.486,223.975,202.423,223.787,208.306z"/>
	<path style="fill:#A85D5D;" d="M360.188,138.207c-0.312-2.812-1.734-5.383-3.953-7.14L256.146,51.288
		c-2.219-1.766-5.031-2.578-7.844-2.258c-2.812,0.32-5.375,1.742-7.14,3.953l-26.593,33.366c-1.766,2.211-2.578,5.031-2.266,7.844
		s1.734,5.382,3.953,7.14l100.089,79.779c1.875,1.484,4.078,2.25,6.297,2.32c3.25,0.109,6.516-1.273,8.703-4.015l26.593-33.366
		C359.704,143.84,360.516,141.019,360.188,138.207z"/>
	<path style="fill:#A85D5D;" d="M209.991,314.567l-100.105-79.77c-2.203-1.766-5.031-2.578-7.843-2.258
		c-2.812,0.32-5.375,1.742-7.141,3.953l-26.593,33.366c-3.672,4.601-2.922,11.304,1.688,14.976l100.105,79.778
		c1.859,1.484,4.062,2.25,6.281,2.328c3.25,0.109,6.516-1.281,8.703-4.016l26.592-33.358c1.766-2.218,2.578-5.046,2.25-7.858
		C213.616,318.895,212.194,316.333,209.991,314.567z"/>
</g>
<path style="fill:#ED5564;" d="M309.331,399.016H10.671c-5.89,0-10.671,4.78-10.671,10.671v42.655
	c0,5.89,4.781,10.671,10.671,10.671h298.66c5.89,0,10.671-4.781,10.671-10.671v-42.655
	C320.002,403.797,315.22,399.016,309.331,399.016z"/>
<g>
	<path style="fill:#434A54;" d="M234.677,366.94c0,0.062-0.016,0.125-0.016,0.188v10.671c0,5.891,4.781,10.655,10.671,10.655
		c5.891,0,10.656-4.765,10.656-10.655v-10.671c0-0.062,0-0.125,0-0.188L234.677,366.94L234.677,366.94z"/>
	<path style="fill:#434A54;" d="M192.008,366.94c0,0.062-0.016,0.125-0.016,0.188v10.671c0,5.891,4.781,10.655,10.671,10.655
		c5.891,0,10.672-4.765,10.672-10.655v-10.671c0-0.062-0.016-0.125-0.016-0.188L192.008,366.94L192.008,366.94z"/>
	<path style="fill:#434A54;" d="M149.337,366.94c0,0.062,0,0.125,0,0.188v10.671c0,5.891,4.766,10.655,10.656,10.655
		s10.671-4.765,10.671-10.655v-10.671c0-0.062-0.016-0.125-0.016-0.188L149.337,366.94L149.337,366.94z"/>
	<path style="fill:#434A54;" d="M106.682,366.94c-0.016,0.062-0.016,0.125-0.016,0.188v10.671c0,5.891,4.781,10.655,10.672,10.655
		c5.89,0,10.656-4.765,10.656-10.655v-10.671c0-0.062,0-0.125,0-0.188L106.682,366.94L106.682,366.94z"/>
	<path style="fill:#434A54;" d="M64.012,366.94c0,0.062-0.016,0.125-0.016,0.188v10.671c0,5.891,4.781,10.655,10.672,10.655
		c5.89,0,10.671-4.765,10.671-10.655v-10.671c0-0.062-0.015-0.125-0.015-0.188L64.012,366.94L64.012,366.94z"/>
</g>
</svg>