<?xml version="1.0" encoding="iso-8859-1"?>
<!-- Uploaded to: SVG Repo, www.svgrepo.com, Generator: SVG Repo Mixer Tools -->
<svg fill="#000000" height="800px" width="800px" version="1.1" id="Layer_1" xmlns="http://www.w3.org/2000/svg" xmlns:xlink="http://www.w3.org/1999/xlink" 
	 viewBox="0 0 512 512" xml:space="preserve">
<g>
	<g>
		<path d="M448,0H256H64C52.218,0,42.667,9.551,42.667,21.333v277.333C42.667,310.449,52.218,320,64,320h106.667v42.667
			c0,11.782,9.551,21.333,21.333,21.333h12.495l-91.582,91.582c-8.331,8.331-8.331,21.839,0,30.17c8.331,8.331,21.839,8.331,30.17,0
			l91.582-91.582v76.497c0,11.782,9.551,21.333,21.333,21.333c11.782,0,21.333-9.551,21.333-21.333V414.17l91.582,91.582
			c8.331,8.331,21.839,8.331,30.17,0c8.331-8.331,8.331-21.839,0-30.17L307.501,384H320c11.782,0,21.333-9.551,21.333-21.333V320
			H448c11.782,0,21.333-9.551,21.333-21.333V21.333C469.333,9.551,459.782,0,448,0z M85.333,42.667h149.333v234.667H192H85.333
			V42.667z M298.667,341.333h-85.333V320H256h42.667V341.333z M426.667,277.333H320h-42.667V42.667h149.333V277.333z"/>
	</g>
</g>
</svg>