<?xml version="1.0" encoding="utf-8"?><!-- Uploaded to: SVG Repo, www.svgrepo.com, Generator: SVG Repo Mixer Tools -->
<svg fill="#000000" width="800px" height="800px" viewBox="0 0 24 24" id="karaoke-add-lyric" data-name="Flat Color" xmlns="http://www.w3.org/2000/svg" class="icon flat-color"><path id="primary" d="M7,2a5,5,0,0,0-3.62,8.42L4,20.12a2,2,0,0,0,2,1.88H8.06a2,2,0,0,0,2-1.88l.57-9.7A5,5,0,0,0,7,2Z" style="fill: rgb(0, 0, 0);"></path><path id="secondary" d="M21,20H14a1,1,0,0,1,0-2h7a1,1,0,0,1,0,2Zm0-4H14a1,1,0,0,1,0-2h7a1,1,0,0,1,0,2ZM19,8a1,1,0,0,1-1-1V6H17a1,1,0,0,1,0-2h1V3a1,1,0,0,1,2,0V4h1a1,1,0,0,1,0,2H20V7A1,1,0,0,1,19,8Zm-7,2a1,1,0,0,0-1-1H3a1,1,0,0,0,0,2h8A1,1,0,0,0,12,10Z" style="fill: rgb(44, 169, 188);"></path></svg>