<?xml version="1.0" encoding="iso-8859-1"?>
<!-- Uploaded to: SVG Repo, www.svgrepo.com, Generator: SVG Repo Mixer Tools -->
<svg version="1.1" id="Layer_1" xmlns="http://www.w3.org/2000/svg" xmlns:xlink="http://www.w3.org/1999/xlink" 
	 viewBox="0 0 512 512" xml:space="preserve">
<circle style="fill:#324A5E;" cx="256" cy="256" r="256"/>
<path style="fill:#2B3B4E;" d="M508.151,300.418L354.694,146.963l-5.115,11.005l-53.21-53.21l-124.84-7.932l-19.537,50.136
	l11.348,347.739C192.076,505.865,223.32,512,256,512C382.235,512,487.119,420.63,508.151,300.418z"/>
<path style="fill:#E6F3FF;" d="M259.377,86.195h-68.813c-25.467,0-46.187,20.72-46.187,46.187v354.059
	c6.185,3.001,12.512,5.758,18.963,8.263V132.382c0-15.012,12.212-27.224,27.224-27.224h68.813c15.012,0,27.224,12.212,27.224,27.224
	v20.183h18.963v-20.183C305.562,106.915,284.844,86.195,259.377,86.195z"/>
<path style="fill:#CFDBE6;" d="M259.377,86.195h-31.534v18.963h31.534c15.012,0,27.224,12.212,27.224,27.224v20.183h18.963v-20.183
	C305.562,106.915,284.844,86.195,259.377,86.195z"/>
<g>
	<path style="fill:#B5F1F4;" d="M250.828,233.205c0-5.673,9.785-18.366,9.785-18.366s9.785,12.693,9.785,18.366
		s-4.38,10.273-9.785,10.273C255.21,243.478,250.828,238.878,250.828,233.205z"/>
	<path style="fill:#B5F1F4;" d="M289.314,233.205c0-5.673,9.785-18.366,9.785-18.366s9.785,12.693,9.785,18.366
		s-4.38,10.273-9.785,10.273C293.695,243.478,289.314,238.878,289.314,233.205z"/>
	<path style="fill:#B5F1F4;" d="M327.799,233.205c0-5.673,9.785-18.366,9.785-18.366s9.785,12.693,9.785,18.366
		s-4.38,10.273-9.785,10.273C332.179,243.478,327.799,238.878,327.799,233.205z"/>
	<path style="fill:#B5F1F4;" d="M269.745,273.098c0-5.673,9.785-18.367,9.785-18.367s9.785,12.693,9.785,18.367
		s-4.38,10.273-9.785,10.273C274.125,283.37,269.745,278.771,269.745,273.098z"/>
	<path style="fill:#B5F1F4;" d="M308.231,273.098c0-5.673,9.785-18.367,9.785-18.367s9.785,12.693,9.785,18.367
		s-4.38,10.273-9.785,10.273C312.611,283.37,308.231,278.771,308.231,273.098z"/>
	<path style="fill:#B5F1F4;" d="M250.828,319.614c0-5.673,9.785-18.366,9.785-18.366s9.785,12.693,9.785,18.366
		s-4.38,10.273-9.785,10.273C255.21,329.887,250.828,325.287,250.828,319.614z"/>
	<path style="fill:#B5F1F4;" d="M289.314,319.614c0-5.673,9.785-18.366,9.785-18.366s9.785,12.693,9.785,18.366
		s-4.38,10.273-9.785,10.273C293.695,329.887,289.314,325.287,289.314,319.614z"/>
	<path style="fill:#B5F1F4;" d="M327.799,319.614c0-5.673,9.785-18.366,9.785-18.366s9.785,12.693,9.785,18.366
		s-4.38,10.273-9.785,10.273C332.179,329.887,327.799,325.287,327.799,319.614z"/>
	<path style="fill:#B5F1F4;" d="M269.745,359.505c0-5.673,9.785-18.366,9.785-18.366s9.785,12.693,9.785,18.366
		s-4.38,10.273-9.785,10.273C274.125,369.778,269.745,365.178,269.745,359.505z"/>
	<path style="fill:#B5F1F4;" d="M308.231,359.505c0-5.673,9.785-18.366,9.785-18.366s9.785,12.693,9.785,18.366
		s-4.38,10.273-9.785,10.273C312.611,369.778,308.231,365.178,308.231,359.505z"/>
	<path style="fill:#B5F1F4;" d="M250.828,404.947c0-5.673,9.785-18.367,9.785-18.367s9.785,12.693,9.785,18.367
		s-4.38,10.273-9.785,10.273C255.21,415.22,250.828,410.621,250.828,404.947z"/>
	<path style="fill:#B5F1F4;" d="M289.314,404.947c0-5.673,9.785-18.367,9.785-18.367s9.785,12.693,9.785,18.367
		s-4.38,10.273-9.785,10.273C293.695,415.22,289.314,410.621,289.314,404.947z"/>
	<path style="fill:#B5F1F4;" d="M327.799,404.947c0-5.673,9.785-18.367,9.785-18.367s9.785,12.693,9.785,18.367
		s-4.38,10.273-9.785,10.273C332.179,415.22,327.799,410.621,327.799,404.947z"/>
	<path style="fill:#B5F1F4;" d="M269.745,444.838c0-5.673,9.785-18.366,9.785-18.366s9.785,12.693,9.785,18.366
		c0,5.673-4.38,10.273-9.785,10.273C274.125,455.111,269.745,450.512,269.745,444.838z"/>
	<path style="fill:#B5F1F4;" d="M308.231,444.838c0-5.673,9.785-18.366,9.785-18.366s9.785,12.693,9.785,18.366
		c0,5.673-4.38,10.273-9.785,10.273C312.611,455.111,308.231,450.512,308.231,444.838z"/>
</g>
<rect x="242.64" y="146.963" style="fill:#CFDBE6;" width="112.054" height="28.444"/>
<rect x="296.219" y="146.963" style="fill:#B8C9D9;" width="58.468" height="28.444"/>
<rect x="227.556" y="170.667" style="fill:#E6F3FF;" width="142.222" height="28.444"/>
<rect x="296.219" y="170.667" style="fill:#CFDBE6;" width="73.552" height="28.444"/>
</svg>