<?xml version="1.0" encoding="iso-8859-1"?>
<!-- Uploaded to: SVG Repo, www.svgrepo.com, Generator: SVG Repo Mixer Tools -->
<svg height="800px" width="800px" version="1.1" id="Layer_1" xmlns="http://www.w3.org/2000/svg" xmlns:xlink="http://www.w3.org/1999/xlink" 
	 viewBox="0 0 511.999 511.999" xml:space="preserve">
<path style="fill:#874D20;" d="M255.996,54.326l126.64,159.331l119.548,150.416c2.863,3.603,0.294,8.916-4.313,8.916H255.996H14.128
	c-4.607,0-7.176-5.312-4.313-8.916l119.552-150.416L255.996,54.326L255.996,54.326z"/>
<path style="fill:#A9BE65;" d="M295.353,332.792l84.583-105.676c15.494-19.405,43.986-22.559,63.327-7.013v0.004l0,0
	c19.335,15.55,22.479,44.144,6.985,63.547l-97.301,121.602L295.353,332.792z"/>
<path style="fill:#7E9332;" d="M295.353,226.654l84.583-105.676c15.494-19.405,43.986-22.559,63.327-7.013v0.004l0,0
	c19.335,15.55,22.479,44.144,6.985,63.547l-97.301,121.602L295.353,226.654z"/>
<path style="fill:#FF4328;" d="M223.684,280.522c0,46.158-37.474,83.576-83.701,83.576s-83.701-37.419-83.701-83.576
	s37.474-83.576,83.701-83.576S223.684,234.365,223.684,280.522z"/>
<path style="fill:#C13421;" d="M203.99,280.522c0,35.297-28.657,63.912-64.007,63.912s-64.007-28.614-64.007-63.912
	s28.657-63.912,64.007-63.912C175.333,216.611,203.99,245.225,203.99,280.522z"/>
<path style="fill:#CF8F3D;" d="M255.996,139.013l126.64,159.331L502.184,448.76c2.863,3.603,0.294,8.916-4.313,8.916H255.996H14.128
	c-4.607,0-7.176-5.312-4.313-8.916l119.552-150.416L255.996,139.013L255.996,139.013z"/>
<path d="M459.791,381.592h38.08c5.466,0,10.335-3.057,12.71-7.977c2.372-4.917,1.735-10.625-1.662-14.898l-53.677-67.535l1.73-2.162
	c18.429-23.08,14.772-56.875-8.119-75.461c-0.066-0.056-0.132-0.112-0.2-0.166c-3.312-2.662-6.933-4.888-10.754-6.675l19.073-23.836
	c18.429-23.079,14.772-56.874-8.119-75.461c-0.066-0.056-0.132-0.112-0.2-0.166c-9.446-7.593-21.341-11.775-33.493-11.775
	c-16.447,0-31.738,7.336-41.943,20.117l-28.866,36.064L262.731,48.97c-1.633-2.054-4.112-3.252-6.736-3.252
	c-2.623,0-5.104,1.197-6.736,3.252L138.465,188.38c-50.197,0.815-90.788,41.822-90.788,92.143c0,6.679,0.717,13.193,2.076,19.473
	L3.08,358.717c-3.397,4.273-4.033,9.982-1.662,14.898c2.375,4.92,7.244,7.977,12.71,7.977H52.21L3.081,443.406
	c-3.398,4.273-4.035,9.982-1.663,14.898c2.374,4.921,7.244,7.978,12.71,7.978H497.87c5.466,0,10.336-3.057,12.71-7.978
	c2.372-4.917,1.735-10.625-1.662-14.897L459.791,381.592z M491.439,364.382h-45.328l-24.637-30.997l22.74-28.419L491.439,364.382z
	 M443.53,278.277l-33.038,41.29l-31.338-39.428l47.547-59.421c3.945,1.318,7.658,3.299,11.006,5.959
	c0.055,0.045,0.11,0.09,0.165,0.136C453.569,239.437,456.107,262.527,443.53,278.277z M386.661,126.346
	c6.928-8.677,17.316-13.654,28.5-13.654c8.293,0,16.083,2.712,22.545,7.845c0.055,0.046,0.11,0.091,0.165,0.137
	c15.699,12.625,18.236,35.715,5.66,51.465l-75.36,94.18l-46.608-58.641L386.661,126.346z M255.996,68.155l77.327,97.29
	l-22.744,28.415l-47.847-60.2c-1.633-2.054-4.112-3.25-6.736-3.25c-2.623,0-5.104,1.197-6.736,3.25l-56.612,71.233
	c-9.991-6.963-21.416-11.997-33.738-14.577L255.996,68.155z M139.983,205.551c15.526,0,29.949,4.752,41.932,12.846l-59.284,74.594
	l-33.724,42.43c-14.765-13.698-24.02-33.236-24.02-54.899C64.887,239.184,98.575,205.551,139.983,205.551z M20.56,364.382
	l35.746-44.974c5.266,11.256,12.743,21.28,21.87,29.513l-12.289,15.461H20.56z M20.561,449.071l235.435-296.227L491.44,449.071
	L20.561,449.071L20.561,449.071z M195.733,326.596v58.874c0,4.752-3.858,8.605-8.618,8.605c-4.76,0-8.618-3.853-8.618-8.605v-58.874
	c0-4.752,3.858-8.605,8.618-8.605S195.733,321.844,195.733,326.596z M256.001,266.315c4.76,0,8.618,3.853,8.618,8.605v110.55
	c0,4.752-3.858,8.605-8.618,8.605s-8.618-3.853-8.618-8.605v-110.55C247.384,270.167,251.242,266.315,256.001,266.315z
	 M316.263,385.469v-58.874c0-4.752,3.858-8.605,8.618-8.605s8.618,3.853,8.618,8.605v58.874c0,4.752-3.858,8.605-8.618,8.605
	S316.263,390.221,316.263,385.469z"/>
</svg>