<?xml version="1.0" encoding="iso-8859-1"?>
<!-- Uploaded to: SVG Repo, www.svgrepo.com, Generator: SVG Repo Mixer Tools -->
<svg version="1.1" id="Layer_1" xmlns="http://www.w3.org/2000/svg" xmlns:xlink="http://www.w3.org/1999/xlink" 
	 viewBox="0 0 512 512" xml:space="preserve">
<path style="fill:#0076CF;" d="M511.344,274.266C511.77,268.231,512,262.143,512,256C512,114.615,397.385,0,256,0S0,114.615,0,256
	c0,117.769,79.53,216.949,187.809,246.801L511.344,274.266z"/>
<path style="fill:#00477D;" d="M511.344,274.266L314.991,77.913L119.096,434.087l68.714,68.714C209.522,508.787,232.385,512,256,512
	C391.243,512,501.976,407.125,511.344,274.266z"/>
<polygon style="fill:#FFFFFF;" points="278.328,333.913 255.711,77.913 119.096,77.913 119.096,311.652 "/>
<polygon style="fill:#E8E6E6;" points="392.904,311.652 392.904,155.826 337.252,133.565 314.991,77.913 255.711,77.913 
	256.067,333.913 "/>
<polygon style="fill:#FFFFFF;" points="314.991,155.826 314.991,77.913 392.904,155.826 "/>
<rect x="119.096" y="311.652" style="fill:#000036;" width="273.809" height="122.435"/>
<g>
	<path style="fill:#FFFFFF;" d="M235.671,372.798c0,15.439-12.259,27.169-28.682,27.169c-16.347,0-28.607-11.655-28.607-27.169
		c0-15.438,12.261-26.866,28.607-26.866C223.413,345.933,235.671,357.436,235.671,372.798z M192.157,372.874
		c0,8.93,6.888,15.817,14.985,15.817c8.174,0,14.681-6.888,14.681-15.817s-6.508-15.665-14.681-15.665
		S192.157,363.943,192.157,372.874z"/>
	<path style="fill:#FFFFFF;" d="M269.735,346.387c11.882,0,19.449,5.146,19.449,13.243c0,5.6-3.482,10.065-9.081,11.655
		c6.659,1.287,10.898,6.509,10.898,13.395c0,9.006-7.87,14.681-20.358,14.681h-25.957v-52.975h25.049V346.387z M258.08,367.576
		h10.898c3.935,0,6.432-2.118,6.432-5.524s-2.498-5.374-6.432-5.374H258.08V367.576z M258.08,388.993h10.898
		c4.993,0,8.096-2.195,8.096-5.978c0-3.556-3.103-5.752-8.096-5.752H258.08V388.993z"/>
	<path style="fill:#FFFFFF;" d="M331.04,382.182c0,11.276-7.038,17.785-18.314,17.785c-7.492,0-13.547-3.102-18.239-8.476
		l6.206-9.007c3.783,3.936,8.022,5.905,11.124,5.905c3.557,0,5.677-2.196,5.677-6.509v-24.672h-18.163v-10.898h31.71V382.182z"/>
</g>
</svg>