<?xml version="1.0" encoding="iso-8859-1"?>
<!-- Uploaded to: SVG Repo, www.svgrepo.com, Generator: SVG Repo Mixer Tools -->
<svg fill="#000000" height="800px" width="800px" version="1.1" id="Layer_1" xmlns="http://www.w3.org/2000/svg" xmlns:xlink="http://www.w3.org/1999/xlink" 
	 viewBox="0 0 392.663 392.663" xml:space="preserve">
<g>
	<g>
		<path d="M381.737,370.812h-19.911V21.85h19.911c6.012,0,10.925-4.848,10.925-10.925S387.814,0,381.737,0H10.925
			C4.913,0,0,4.848,0,10.925S4.848,21.85,10.925,21.85h19.911v348.962H10.925C4.913,370.812,0,375.661,0,381.737
			c0,6.012,4.848,10.925,10.925,10.925h370.747c6.012,0,10.925-4.848,10.925-10.925
			C392.598,375.661,387.749,370.812,381.737,370.812z M284.509,263.822c9.438,14.158,15.451,30.513,17.261,48.032h-17.261V263.822z
			 M108.154,370.812H52.687V21.85h55.467v208.226c-24.889,23.596-39.564,56.63-39.564,92.574c0,6.012,4.848,10.925,10.925,10.925
			h28.638V370.812z M108.218,311.79h-0.065H90.958c1.745-17.519,7.822-33.939,17.261-47.968V311.79z M185.406,370.812h-55.467
			v-37.236h55.467V370.812z M185.406,311.79h-55.467v-71.758c5.301-4.267,11.119-8.016,17.325-11.313
			c7.176,15.451,21.398,26.57,38.141,30.061V311.79z M185.406,150.756c-14.481-4.655-24.889-18.166-24.889-34.069
			c0-15.903,10.537-29.414,24.889-34.069V150.756z M185.471,60.057h-0.065v0.065c-26.57,5.107-46.675,28.509-46.675,56.566
			c0,28.057,20.17,51.394,46.675,56.566v63.16c-10.602-3.814-18.683-12.929-20.881-24.501c-1.422-6.852-8.404-10.602-14.675-8.21
			c-7.046,2.715-13.576,6.077-19.846,9.891V21.915h55.467V60.057z M207.257,82.618c14.352,4.655,24.889,18.166,24.889,34.069
			c0,15.903-10.408,29.414-24.889,34.069V82.618z M262.723,370.812h-55.467v-37.236h55.467V370.812z M262.723,311.79h-55.467v-53.01
			c16.743-3.491,30.966-14.61,38.141-29.996c6.206,3.232,11.96,7.046,17.325,11.313V311.79z M262.788,213.592h-0.065
			c-6.271-3.814-12.929-7.111-19.846-9.891c-7.499-2.715-13.705,2.392-14.675,8.21c-2.133,11.507-10.279,20.687-20.881,24.501
			v-63.224c26.57-5.107,46.675-28.509,46.675-56.501c0-27.992-20.105-51.394-46.675-56.501V21.851h55.467V213.592z M339.976,370.812
			h-55.467v-37.236h28.638c6.012,0,10.925-4.848,10.925-10.925c0-35.943-14.675-68.978-39.564-92.574V21.85h55.467V370.812z"/>
	</g>
</g>
</svg>