<?xml version="1.0" encoding="iso-8859-1"?>
<!-- Uploaded to: SVG Repo, www.svgrepo.com, Generator: SVG Repo Mixer Tools -->
<svg height="800px" width="800px" version="1.1" id="Layer_1" xmlns="http://www.w3.org/2000/svg" xmlns:xlink="http://www.w3.org/1999/xlink" 
	 viewBox="0 0 512 512" xml:space="preserve">
<circle style="fill:#273B7A;" cx="256" cy="256" r="256"/>
<path style="fill:#121149;" d="M154.721,355.837L305.99,507.106c101.283-20.051,181.067-99.837,201.118-201.119L357.136,156.015
	L154.721,355.837z"/>
<circle style="fill:#FFC61B;" cx="256" cy="256" r="142.222"/>
<path style="fill:#EAA22F;" d="M398.222,256c0-78.546-63.674-142.222-142.222-142.222v284.444
	C334.548,398.222,398.222,334.546,398.222,256z"/>
<g>
	<path style="fill:#272525;" d="M196.527,247.811c-17.11,0-31.03-13.921-31.03-31.03c0-4.284,3.474-7.758,7.758-7.758
		s7.758,3.474,7.758,7.758c0,8.556,6.959,15.515,15.515,15.515c8.556,0,15.515-6.959,15.515-15.515c0-4.284,3.474-7.758,7.758-7.758
		c4.284,0,7.758,3.474,7.758,7.758C227.557,233.891,213.637,247.811,196.527,247.811z"/>
	<path style="fill:#272525;" d="M315.475,247.811c-17.11,0-31.03-13.921-31.03-31.03c0-4.284,3.474-7.758,7.758-7.758
		s7.758,3.474,7.758,7.758c0,8.556,6.959,15.515,15.515,15.515c8.556,0,15.515-6.959,15.515-15.515c0-4.284,3.474-7.758,7.758-7.758
		s7.758,3.474,7.758,7.758C346.505,233.891,332.585,247.811,315.475,247.811z"/>
</g>
<path style="fill:#FFFFFF;" d="M402.484,258.619c-0.357-2.35-2.546-3.984-4.908-3.615l-64.626,9.794
	c-47.95-4.82-105.95-4.82-153.9,0l-64.626-9.794c-2.36-0.365-4.551,1.264-4.908,3.615c-0.357,2.353,1.262,4.551,3.615,4.908
	l55.955,8.478c-6.342,28.751-1.195,57.503,6.489,86.254l-13.236,1.967c-2.355,0.35-3.98,2.543-3.629,4.896
	c0.319,2.139,2.157,3.677,4.258,3.677c0.21,0,0.424-0.016,0.638-0.047l16.377-2.432c50.678,5.679,101.355,5.679,152.033,0
	l16.377,2.432c0.214,0.033,0.428,0.047,0.638,0.047c2.101,0,3.939-1.538,4.258-3.677c0.35-2.353-1.274-4.546-3.629-4.896
	l-13.236-1.967c7.685-28.751,12.833-57.503,6.491-86.254l55.955-8.478C401.22,263.168,402.841,260.972,402.484,258.619z"/>
<path style="fill:#D0D1D3;" d="M402.484,258.619c-0.357-2.35-2.546-3.984-4.908-3.615l-64.626,9.794
	c-24.148-2.427-50.845-3.629-77.524-3.612v109.387c25.531,0.021,51.06-1.395,76.591-4.255l16.377,2.432
	c0.214,0.033,0.428,0.047,0.638,0.047c2.101,0,3.939-1.538,4.258-3.677c0.35-2.353-1.274-4.546-3.629-4.896l-13.236-1.967
	c7.685-28.751,12.833-57.503,6.491-86.254l55.955-8.478C401.22,263.168,402.841,260.972,402.484,258.619z"/>
</svg>