<?xml version="1.0" encoding="iso-8859-1"?>
<!-- Uploaded to: SVG Repo, www.svgrepo.com, Generator: SVG Repo Mixer Tools -->
<svg height="800px" width="800px" version="1.1" id="Layer_1" xmlns="http://www.w3.org/2000/svg" xmlns:xlink="http://www.w3.org/1999/xlink" 
	 viewBox="0 0 512 512" xml:space="preserve">
<path style="fill:#CF8F3D;" d="M256.015,8.605C119.368,8.605,8.605,119.368,8.605,256s110.763,247.395,247.41,247.395
	c136.627,0,247.38-110.763,247.38-247.395S392.642,8.605,256.015,8.605z M256.003,327.423c-39.45,0-71.426-31.977-71.426-71.423
	s31.977-71.422,71.426-71.422c39.444,0,71.419,31.977,71.419,71.422S295.447,327.423,256.003,327.423z"/>
<path style="fill:#9A1F2A;" d="M256.013,40.874C137.189,40.874,40.874,137.189,40.874,256s96.315,215.126,215.139,215.126
	c118.807,0,215.113-96.315,215.113-215.126S374.82,40.874,256.013,40.874z M256,357.902c-56.279,0-101.902-45.623-101.902-101.902
	S199.721,154.098,256,154.098S357.902,199.721,357.902,256S312.279,357.902,256,357.902z"/>
<path d="M336.026,256c0-44.127-35.898-80.027-80.024-80.027c-44.13,0-80.031,35.9-80.031,80.027s35.902,80.027,80.031,80.027
	C300.128,336.027,336.026,300.127,336.026,256z M256.002,318.817c-34.64,0-62.821-28.179-62.821-62.817s28.182-62.817,62.821-62.817
	c34.635,0,62.814,28.179,62.814,62.817S290.639,318.817,256.002,318.817z M437.024,74.981C388.676,26.628,324.392,0,256.015,0
	C187.629,0,123.337,26.628,74.982,74.981C26.629,123.332,0,187.619,0,256s26.629,132.668,74.982,181.02
	C123.337,485.372,187.629,512,256.015,512c68.377,0,132.662-26.628,181.01-74.981C485.374,388.667,512,324.38,512,256
	S485.374,123.333,437.024,74.981z M256.015,494.79C124.337,494.79,17.21,387.669,17.21,256S124.337,17.21,256.015,17.21
	c131.66,0,238.775,107.121,238.775,238.79S387.675,494.79,256.015,494.79z M188.603,102.297c0-4.752,3.852-8.605,8.605-8.605h41.3
	c4.752,0,8.605,3.853,8.605,8.605c0,4.752-3.853,8.605-8.605,8.605h-41.3C192.456,110.902,188.603,107.049,188.603,102.297z
	 M246.816,393.425l-10.762,39.877c-1.036,3.838-4.509,6.366-8.303,6.366c-0.742,0-1.496-0.097-2.247-0.299
	c-4.589-1.238-7.304-5.961-6.065-10.55l10.762-39.877c1.238-4.589,5.963-7.306,10.55-6.065
	C245.339,384.112,248.055,388.836,246.816,393.425z M384.158,203.772c-1.538,1.137-3.331,1.686-5.108,1.686
	c-2.636,0-5.239-1.207-6.926-3.49c-2.825-3.822-2.017-9.21,1.805-12.035l33.214-24.552c3.822-2.825,9.211-2.017,12.035,1.805
	s2.017,9.21-1.805,12.034L384.158,203.772z M95.906,160.483c1.92-4.348,7-6.317,11.348-4.396l37.78,16.682
	c4.348,1.92,6.316,7,4.396,11.348c-1.421,3.217-4.573,5.131-7.877,5.131c-1.162,0-2.341-0.236-3.471-0.736l-37.78-16.683
	C95.955,169.911,93.986,164.831,95.906,160.483z M429.409,328.666c-1.697,1.851-4.017,2.79-6.345,2.79
	c-2.078,0-4.161-0.748-5.813-2.261l-30.447-27.908c-3.503-3.212-3.74-8.655-0.529-12.158c3.211-3.504,8.655-3.74,12.158-0.529
	l30.447,27.908C432.383,319.719,432.62,325.163,429.409,328.666z M166.036,376.589c-1.42,3.217-4.571,5.132-7.877,5.132
	c-1.162,0-2.341-0.237-3.471-0.736l-37.784-16.682c-4.347-1.919-6.315-7-4.396-11.348c1.919-4.348,6.998-6.316,11.348-4.396
	l37.784,16.682C165.988,367.161,167.956,372.241,166.036,376.589z M308.941,87.57c-2.1-4.264-0.344-9.421,3.92-11.521
	c4.263-2.1,9.421-0.344,11.521,3.92l18.243,37.054c2.1,4.264,0.344,9.421-3.92,11.521c-1.222,0.602-2.518,0.887-3.795,0.887
	c-3.175,0-6.229-1.765-7.726-4.806L308.941,87.57z M117.585,263.221l-29.059,29.351c-1.682,1.699-3.898,2.55-6.115,2.55
	c-2.188,0-4.377-0.829-6.054-2.49c-3.377-3.344-3.404-8.792-0.061-12.17l29.059-29.351c3.344-3.377,8.792-3.404,12.169-0.06
	C120.901,254.395,120.928,259.844,117.585,263.221z M366.569,391.179c0,4.752-3.852,8.605-8.605,8.605h-41.303
	c-4.752,0-8.605-3.853-8.605-8.605c0-4.752,3.853-8.605,8.605-8.605h41.303C362.718,382.574,366.569,386.427,366.569,391.179z"/>
</svg>