<?xml version="1.0" encoding="iso-8859-1"?>
<!-- Uploaded to: SVG Repo, www.svgrepo.com, Generator: SVG Repo Mixer Tools -->
<svg version="1.1" id="Layer_1" xmlns="http://www.w3.org/2000/svg" xmlns:xlink="http://www.w3.org/1999/xlink" 
	 viewBox="0 0 512 512" xml:space="preserve">
<path style="fill:#E5E5E5;" d="M318.921,0v450.752c-0.101,33.784-27.464,61.147-61.248,61.248l0,0
	c-33.784-0.101-61.147-27.464-61.248-61.248V0H318.921z"/>
<path style="fill:#CCCCCC;" d="M257.673,512V1.656L196.417,0v450.752C196.517,484.54,223.885,511.903,257.673,512L257.673,512"/>
<rect x="169.505" style="fill:#999999;" width="172.991" height="36.928"/>
<path style="fill:#E21B1B;" d="M286.209,114.648v315.2c-0.039,15.746-12.79,28.504-28.536,28.552l0,0
	c-15.746-0.044-28.5-12.798-28.544-28.544v-315.2L286.209,114.648z"/>
<path style="fill:#F91E1E;" d="M257.673,458.4V114.648h-28.544v315.2C229.168,445.598,241.923,458.357,257.673,458.4L257.673,458.4"
	/>
</svg>