<?xml version="1.0" encoding="iso-8859-1"?>
<!-- Uploaded to: SVG Repo, www.svgrepo.com, Generator: SVG Repo Mixer Tools -->
<svg version="1.1" id="Layer_1" xmlns="http://www.w3.org/2000/svg" xmlns:xlink="http://www.w3.org/1999/xlink" 
	 viewBox="0 0 511.988 511.988" xml:space="preserve">
<g>
	<path style="fill:#AAB2BC;" d="M394.647,511.988c-1.906,0-3.844-0.5-5.578-1.578L250.4,425.084
		c-5.016-3.094-6.578-9.656-3.484-14.672c3.078-5.016,9.656-6.578,14.671-3.5l138.654,85.326c5.031,3.094,6.594,9.656,3.5,14.688
		C401.725,510.191,398.225,511.988,394.647,511.988z"/>
	<path style="fill:#AAB2BC;" d="M117.341,511.988c-3.578,0-7.078-1.797-9.094-5.062c-3.093-5.031-1.531-11.594,3.5-14.688
		L250.4,406.912c5.016-3.078,11.593-1.516,14.671,3.5c3.094,5.016,1.531,11.578-3.484,14.672L122.919,510.41
		C121.184,511.488,119.247,511.988,117.341,511.988z"/>
</g>
<path style="fill:#CCD1D9;" d="M255.994,511.988c-5.891,0-10.672-4.766-10.672-10.656V10.671C245.322,4.78,250.103,0,255.994,0
	c5.89,0,10.671,4.781,10.671,10.671v490.661C266.665,507.223,261.884,511.988,255.994,511.988z"/>
<path style="fill:#434A54;" d="M511.988,74.67c0,5.891-4.781,10.672-10.672,10.672H10.671C4.78,85.342,0,80.561,0,74.67V31.999
	c0-5.891,4.781-10.656,10.671-10.656h490.645c5.891,0,10.672,4.766,10.672,10.656V74.67z"/>
<rect x="21.327" y="85.344" style="fill:#E6E9ED;" width="469.33" height="298.65"/>
<g>
	<path style="fill:#ED5564;" d="M85.326,330.664c-2.719,0-5.453-1.047-7.531-3.125c-4.172-4.172-4.172-10.922,0-15.078l42.655-42.67
		c4.172-4.172,10.921-4.172,15.093,0c4.156,4.171,4.156,10.921,0,15.077l-42.671,42.671
		C90.794,329.617,88.06,330.664,85.326,330.664z"/>
	<path style="fill:#ED5564;" d="M127.997,330.664c-2.734,0-5.453-1.047-7.547-3.125l-42.655-42.671
		c-4.172-4.156-4.172-10.906,0-15.077c4.156-4.172,10.906-4.172,15.078,0l42.671,42.67c4.156,4.156,4.156,10.906,0,15.078
		C133.45,329.617,130.731,330.664,127.997,330.664z"/>
	<path style="fill:#ED5564;" d="M383.991,287.993c-2.734,0-5.453-1.031-7.547-3.125c-4.156-4.156-4.156-10.922,0-15.077
		l42.671-42.671c4.172-4.156,10.921-4.156,15.077,0c4.172,4.171,4.172,10.921,0,15.093l-42.654,42.655
		C389.444,286.962,386.725,287.993,383.991,287.993z"/>
	<path style="fill:#ED5564;" d="M426.662,287.993c-2.734,0-5.469-1.031-7.547-3.125l-42.671-42.655
		c-4.156-4.172-4.156-10.922,0-15.093c4.172-4.156,10.922-4.156,15.094,0l42.654,42.671c4.172,4.155,4.172,10.921,0,15.077
		C432.114,286.962,429.38,287.993,426.662,287.993z"/>
	<path style="fill:#ED5564;" d="M127.997,202.667c-2.734,0-5.453-1.047-7.547-3.125c-4.156-4.156-4.156-10.922,0-15.078
		l42.671-42.671c4.172-4.172,10.921-4.172,15.078,0c4.172,4.171,4.172,10.921,0,15.093l-42.655,42.655
		C133.45,201.62,130.731,202.667,127.997,202.667z"/>
	<path style="fill:#ED5564;" d="M170.668,202.667c-2.734,0-5.469-1.047-7.547-3.125l-42.671-42.655
		c-4.156-4.172-4.156-10.922,0-15.093c4.172-4.156,10.921-4.172,15.093,0l42.655,42.671c4.172,4.156,4.172,10.921,0,15.078
		C176.12,201.62,173.386,202.667,170.668,202.667z"/>
</g>
<path style="fill:#8CC153;" d="M330.664,149.308c0-0.344-0.031-0.688-0.062-1.031c-0.016-0.156-0.047-0.312-0.062-0.469
	c-0.031-0.188-0.047-0.375-0.094-0.562c-0.031-0.172-0.078-0.344-0.125-0.531c-0.031-0.156-0.078-0.312-0.125-0.469
	c-0.047-0.188-0.109-0.344-0.172-0.516c-0.062-0.156-0.109-0.312-0.172-0.469c-0.078-0.172-0.156-0.328-0.219-0.484
	c-0.078-0.156-0.156-0.312-0.234-0.469s-0.172-0.297-0.266-0.438c-0.078-0.156-0.172-0.312-0.266-0.453
	c-0.109-0.172-0.234-0.328-0.359-0.484c-0.094-0.109-0.172-0.234-0.266-0.359c-0.453-0.547-0.953-1.047-1.484-1.484
	c-0.125-0.094-0.25-0.188-0.375-0.281c-0.156-0.109-0.312-0.234-0.469-0.344c-0.156-0.094-0.312-0.188-0.469-0.281
	c-0.141-0.078-0.281-0.172-0.422-0.25c-0.156-0.094-0.328-0.156-0.484-0.234s-0.312-0.156-0.469-0.219s-0.312-0.109-0.484-0.172
	c-0.156-0.062-0.328-0.125-0.5-0.172c-0.156-0.062-0.328-0.094-0.484-0.141c-0.172-0.031-0.344-0.078-0.516-0.125
	c-0.203-0.031-0.391-0.062-0.593-0.078c-0.141-0.031-0.297-0.047-0.453-0.062c-0.344-0.047-0.703-0.062-1.062-0.062h-32.844
	c-5.891,0-10.656,4.781-10.656,10.671s4.766,10.656,10.656,10.656h7.109l-77.795,77.795l0,0c-3.375,3.391-4.015,8.484-1.906,12.5
	c0.5,0.938,1.125,1.797,1.906,2.578l42.67,42.671c2.078,2.078,4.812,3.125,7.547,3.125c2.719,0,5.453-1.047,7.531-3.125
	c4.172-4.172,4.172-10.922,0-15.078l-35.124-35.124l70.249-70.249v6.25c0,5.89,4.781,10.656,10.672,10.656
	c5.89,0,10.671-4.766,10.671-10.656v-32C330.664,149.324,330.664,149.324,330.664,149.308z"/>
<path style="fill:#A0D468;" d="M319.993,298.665c0,23.562-19.094,42.671-42.672,42.671c-23.562,0-42.655-19.109-42.655-42.671
	c0-23.562,19.093-42.671,42.655-42.671C300.899,255.994,319.993,275.102,319.993,298.665z"/>
</svg>