<?xml version="1.0" encoding="iso-8859-1"?>
<!-- Uploaded to: SVG Repo, www.svgrepo.com, Generator: SVG Repo Mixer Tools -->
<svg height="800px" width="800px" version="1.1" id="Layer_1" xmlns="http://www.w3.org/2000/svg" xmlns:xlink="http://www.w3.org/1999/xlink" 
	 viewBox="0 0 505.1 505.1" xml:space="preserve">
<g>
	<circle style="fill:#FD8469;" cx="252.55" cy="252.5" r="252.5"/>
	<path style="fill:#FD8469;" d="M505.05,252.5c0,137.1-109.3,248.7-245.6,252.4c-2.3,0-4.6,0.1-6.9,0.1c-4.3,0-8.6-0.1-12.8-0.3
		c-133.5-6.7-239.7-117-239.7-252.2C0.05,113,113.05,0,252.55,0S505.05,113,505.05,252.5z"/>
</g>
<path style="fill:#FFFFFF;" d="M259.45,340.4V505c-2.3,0-4.6,0.1-6.9,0.1c-4.3,0-8.6-0.1-12.8-0.3V340.4H259.45z"/>
<path style="fill:#CED5E0;" d="M218.75,269.5l-40.8,40.8l49,49c11.3,11.3,29.5,11.3,40.8,0l0,0c11.3-11.3,11.3-29.5,0-40.8
	L218.75,269.5z"/>
<path style="fill:#2B3B4E;" d="M323.75,221.4l-56.5-56.5l-156.9,176.3c-9.3,10.4-8.8,26.2,1,36.1l0,0c9.9,9.9,25.7,10.3,36.1,1
	L323.75,221.4z"/>
<circle style="fill:#324A5E;" cx="321.55" cy="167.2" r="79.9"/>
<g>
	<path style="fill:#E6E9EE;" d="M266.95,290.6l-70.7,62c-4.1,3.6-10.3,3.4-14.1-0.5l-44-44c-3.9-3.9-4.1-10-0.5-14.1l62-70.7
		c3.9-4.5,10.9-4.7,15.1-0.5l52.6,52.6C271.65,279.7,271.45,286.6,266.95,290.6z"/>
	<circle style="fill:#E6E9EE;" cx="249.65" cy="340.4" r="14.5"/>
</g>
</svg>