<?xml version="1.0" ?><!-- Uploaded to: SVG Repo, www.svgrepo.com, Generator: SVG Repo Mixer Tools -->
<svg width="800px" height="800px" viewBox="0 0 1000 1000" id="Layer_2" version="1.1" xml:space="preserve" xmlns="http://www.w3.org/2000/svg" xmlns:xlink="http://www.w3.org/1999/xlink"><path d="M152.231,610.515c0,97.516,79.053,176.569,176.569,176.569c97.516,0,176.568-79.053,176.568-176.569  c0-91.555-69.686-166.83-158.908-175.692v-36.857h20.854c87.011,0,164.302,58.479,187.959,142.212  c13.454,47.616,41.422,88.565,80.88,118.421c5.735,4.339,11.634,8.374,17.673,12.113c-1.149,5.998-1.759,12.188-1.759,18.521  c0,54.041,43.809,97.85,97.85,97.85c54.041,0,97.85-43.809,97.85-97.85c0-54.042-43.809-97.85-97.85-97.85  c-36.764,0-68.786,20.278-85.508,50.256c-38.087-25.248-67.27-63.621-80.267-109.618c-2.432-8.608-5.346-16.995-8.709-25.142  l31.192-137.945c10.201-4.441,19.814-8.523,27.387-11.548c30.943-12.362,23.8-33.553,0-44.149  c-17.875-7.958-63.037,20.94-84.417,35.823c-7.251,5.047-11.56,13.333-11.56,22.168v12.816c0,7.345,7.587,12.233,14.269,9.186  c5.635-2.569,12.576-5.722,20.132-9.125l-18.66,82.527c-13.662-20.117-30.626-37.984-50.514-53.032  c-39.458-29.854-86.469-45.635-135.949-45.635h-20.854v-29.112h9.136c8.284,0,15-6.715,15-15v-5.321c0-8.284-6.716-15-15-15h-9.136  h-14.433l-11.45-15.623c-6.856-9.354-8.007-21.666-3.003-32.13c6.133-12.823,20.176-19.947,34.146-17.323l73.382,13.784  c6.783,1.271,13.318-3.192,14.593-9.977c1.274-6.785-3.192-13.318-9.978-14.593l-73.382-13.784  c-25.089-4.714-50.301,8.08-61.314,31.107c-8.985,18.789-6.92,40.897,5.393,57.695l0.653,0.891  c-7.846,0.486-14.064,6.985-14.064,14.953v5.321c0,8.285,6.716,15,15,15h9.136v95.969  C221.917,443.684,152.231,518.96,152.231,610.515z M681.62,685.348c13.429,5.908,27.382,10.469,41.722,13.623  c3.969,10.831,14.37,18.56,26.577,18.56c15.628,0,28.297-12.669,28.297-28.298c0-15.628-12.669-28.297-28.297-28.297  c-7.957,0-15.142,3.289-20.283,8.575c-13.707-3.082-26.945-7.622-39.513-13.472c11.697-20.987,34.11-35.221,59.796-35.221  c37.725,0,68.416,30.69,68.416,68.415c0,37.725-30.691,68.417-68.416,68.417c-37.725,0-68.416-30.692-68.416-68.417  C681.503,687.929,681.548,686.635,681.62,685.348z M406.965,728.899l-41.337-71.598c3.699-2.917,7.043-6.26,9.959-9.96  l71.598,41.337C436.617,704.631,422.917,718.331,406.965,728.899z M455.709,673.971l-71.61-41.345  c1.726-4.313,2.966-8.87,3.645-13.611h82.708C469.284,638.669,464.101,657.257,455.709,673.971z M455.709,547.059  c8.392,16.714,13.575,35.302,14.742,54.956h-82.708c-0.678-4.742-1.919-9.299-3.645-13.611L455.709,547.059z M447.185,532.351  l-71.598,41.337c-2.916-3.7-6.26-7.043-9.959-9.959l41.337-71.598C422.917,502.698,436.617,516.398,447.185,532.351z   M346.461,469.717c16.273,2.029,31.702,6.813,45.796,13.889l-41.345,71.611c-1.459-0.584-2.939-1.125-4.451-1.595V469.717z   M337.301,669.458c4.741-0.678,9.299-1.918,13.611-3.645l41.344,71.611c-16.714,8.392-35.302,13.575-54.955,14.742V669.458z   M311.14,469.717v83.905c-1.513,0.469-2.992,1.011-4.45,1.595l-41.346-71.611C279.438,476.53,294.866,471.747,311.14,469.717z   M250.636,492.13l41.337,71.598c-3.699,2.916-7.043,6.259-9.959,9.959l-71.598-41.337  C220.983,516.398,234.684,502.698,250.636,492.13z M201.892,547.059l71.61,41.345c-1.727,4.313-2.967,8.87-3.645,13.611h-82.708  C188.316,582.361,193.5,563.773,201.892,547.059z M201.892,673.971c-8.392-16.714-13.575-35.302-14.742-54.956h82.708  c0.679,4.742,1.919,9.299,3.645,13.611L201.892,673.971z M210.416,688.679l71.598-41.337c2.916,3.7,6.26,7.043,9.959,9.959  l-41.337,71.598C234.684,718.331,220.983,704.631,210.416,688.679z M320.301,669.458v82.708  c-19.654-1.167-38.242-6.351-54.956-14.742l41.344-71.611C311.002,667.54,315.559,668.78,320.301,669.458z" style="fill:#231F20;"/></svg>