<?xml version="1.0" encoding="iso-8859-1"?>
<!-- Uploaded to: SVG Repo, www.svgrepo.com, Generator: SVG Repo Mixer Tools -->
<svg height="800px" width="800px" version="1.1" id="Layer_1" xmlns="http://www.w3.org/2000/svg" xmlns:xlink="http://www.w3.org/1999/xlink" 
	 viewBox="0 0 512.001 512.001" xml:space="preserve">
<path style="fill:#8D663D;" d="M353.802,283.82c-17.395-19.493-19.597-46.931-8.343-70.529c3.529-7.401,5.955-14.353,5.955-19.48
	H160.586c0,5.146,2.444,12.131,5.994,19.561c11.377,23.815,8.578,51.227-8.874,71.003c-21.29,24.128-33.88,56.152-32.842,91.14
	c2.091,70.406,59.944,127.04,130.187,127.538c72.892,0.516,132.143-58.58,132.143-131.552
	C387.195,337.814,374.568,307.09,353.802,283.82z"/>
<path style="opacity:0.3;fill:#563F32;enable-background:new    ;" d="M353.802,284.68c-10.614-11.893-15.56-26.743-15.257-41.875
	c0.048-2.406,0.23-4.818,0.542-7.228c0.002-0.02,0.005-0.041,0.007-0.061c0.309-2.37,0.747-4.735,1.308-7.087
	c0.016-0.064,0.03-0.13,0.045-0.194c0.272-1.122,0.573-2.241,0.902-3.355c0.079-0.267,0.167-0.531,0.235-0.801
	c0.23-0.91,0.549-1.791,0.883-2.669c0.042-0.109,0.074-0.218,0.113-0.327c0.376-1.053,0.781-2.099,1.208-3.142
	c0.093-0.228,0.188-0.456,0.285-0.682c0.439-1.042,0.895-2.081,1.386-3.111c3.529-7.401,5.955-14.353,5.955-19.48h-37.191
	c-11.737,4.366-31.372,8.945-58.223,8.945s-46.486-4.579-58.223-8.945h-37.191c0,5.146,2.444,12.131,5.994,19.561
	c4.393,9.194,6.662,18.923,6.801,28.543c17.14,7.405,38.333,11.878,60.477,13.642c12.471,0.993,22.142,11.282,22.142,23.79v94.786
	c0,84.719,126.747,88.747,131.024,4.136c0.113-2.242,0.171-4.499,0.171-6.77C387.195,338.674,374.568,307.951,353.802,284.68z"/>
<path style="opacity:0.5;fill:#A57D48;enable-background:new    ;" d="M172.572,388.292c-0.941-31.706,9.31-60.98,27.087-84.149
	c4.663-6.078,8.67-12.633,12.186-19.439l0,0c3.004-5.817-0.453-12.873-6.887-14.088c-12.471-2.354-24.01-5.584-34.23-9.599
	c-2.525,8.408-6.85,16.362-13.022,23.356c-21.29,24.128-33.88,56.152-32.842,91.14c2.007,67.618,55.451,122.523,121.904,127.207
	C204.092,481.955,174.068,438.649,172.572,388.292z"/>
<ellipse style="fill:#8D663D;" cx="255.996" cy="193.81" rx="95.414" ry="35.78"/>
<path style="fill:#ACB958;" d="M297.744,68.579c16.467,0,29.817-13.35,29.817-29.817s-13.35-29.817-29.817-29.817h-11.927
	c-32.882,0-59.634,26.752-59.634,59.634v159.22c9.384,1.157,19.4,1.791,29.817,1.791c10.417,0,20.433-0.635,29.817-1.791V68.579
	H297.744z"/>
<path style="fill:#949C53;" d="M313.981,14.194c-4.267-2.777-9.38-3.988-14.465-3.73C256,12.675,256,40.879,256,69.024v121.474
	c0,6.822-5.717,12.294-12.528,11.914c-6.242-0.348-12.008-0.945-17.289-1.707V227.8c9.384,1.157,19.4,1.791,29.817,1.791
	c3.802,0,7.529-0.112,11.214-0.276c1.232,0.092,2.446,0.202,3.695,0.276c5.113-0.303,10.096-0.754,14.908-1.348v-0.445v-27.095
	V69.024h11.276c15.94,0,30.002-13.011,30.456-28.945C327.858,29.24,322.381,19.659,313.981,14.194z"/>
<path d="M360.476,277.864c-8.593-9.629-13.091-21.72-13.007-34.965c0.031-4.94-3.949-8.97-8.889-9.001c-0.02,0-0.038,0-0.057,0
	c-4.914,0-8.913,3.968-8.944,8.889c-0.11,17.497,6.123,34.183,17.55,46.988c20.069,22.49,31.122,51.513,31.122,81.724
	c0,32.984-12.871,63.93-36.243,87.137c-23.06,22.897-53.572,35.475-86.002,35.475c-0.296,0-0.593-0.001-0.889-0.004
	c-64.958-0.462-119.376-53.781-121.31-118.859c-0.93-31.36,9.94-61.53,30.608-84.954c15.833-17.943,21.409-41.669,15.92-64.752
	c19.974,8.591,47.909,12.993,75.665,12.993c51.86,0,104.359-15.363,104.359-44.725c0-16.838-18.39-30.961-50.454-38.747
	c-4.82-1.17-9.899-2.165-15.143-3.002V77.524h2.982c8.986,0,17.26-3.082,23.842-8.233l8.957,8.957v8.221
	c0,4.941,4.005,8.945,8.945,8.945s8.945-4.004,8.945-8.945v-2.982h2.982c4.94,0,8.945-4.004,8.945-8.945s-4.005-8.945-8.945-8.945
	h-8.221l-10.369-10.369c2.357-5.001,3.682-10.581,3.682-16.466C336.506,17.388,319.117,0,297.744,0h-11.927
	c-37.815,0-68.579,30.764-68.579,68.579v134.174c0,4.941,4.005,8.945,8.945,8.945c4.94,0,8.945-4.004,8.945-8.945v-1.536
	c10.411-3.693,17.89-13.636,17.89-25.297c0-4.941-4.005-8.945-8.945-8.945c-4.94,0-8.945,4.004-8.945,8.945v-22.41
	c10.411-3.693,17.89-13.636,17.89-25.297c0-4.941-4.005-8.945-8.945-8.945c-4.94,0-8.945,4.004-8.945,8.945v-22.41
	c10.411-3.693,17.89-13.636,17.89-25.297c0-4.941-4.005-8.945-8.945-8.945c-4.94,0-8.945,4.004-8.945,8.945V68.579
	c0-27.95,22.738-50.689,50.689-50.689h11.927c11.508,0,20.872,9.364,20.872,20.872s-9.364,20.872-20.872,20.872h-11.927
	c-4.94,0-8.945,4.004-8.945,8.945v35.78c0-4.941-4.005-8.945-8.945-8.945c-4.94,0-8.945,4.004-8.945,8.945
	c0,11.661,7.479,21.604,17.89,25.297v22.41c0-4.941-4.005-8.945-8.945-8.945c-4.94,0-8.945,4.004-8.945,8.945
	c0,11.661,7.479,21.604,17.89,25.297v22.41c0-4.941-4.005-8.945-8.945-8.945c-4.94,0-8.945,4.004-8.945,8.945
	c0,8.235,3.733,15.613,9.591,20.54c-4.068,0.211-8.253,0.332-12.573,0.332c-51.982,0-86.469-16.151-86.469-26.835
	c0-5.329,9.857-13.853,31.5-19.975c4.754-1.345,7.517-6.288,6.172-11.042c-1.345-4.754-6.287-7.525-11.042-6.173
	c-28.709,8.122-44.52,21.329-44.52,37.19c0,0.655,0.036,1.3,0.087,1.942c0.416,5.753,2.635,12.799,6.78,21.475
	c10.079,21.096,7.201,44.557-7.508,61.23c-23.685,26.842-36.142,61.405-35.075,97.323c1.079,36.37,16.074,70.502,42.218,96.11
	c26.145,25.607,60.538,39.851,96.847,40.109c0.342,0.002,0.677,0.004,1.019,0.004c37.183-0.001,72.168-14.422,98.603-40.672
	c26.78-26.591,41.528-62.044,41.528-99.831C396.14,336.89,383.473,303.637,360.476,277.864z M342.469,193.81
	c0,7.727-18.051,18.312-47.707,23.58v-47.2c3.769,0.66,7.426,1.41,10.921,2.258C329.834,178.313,342.469,187.633,342.469,193.81z"/>
<circle cx="285.813" cy="34.588" r="8.945"/>
</svg>